<mxfile host="app.diagrams.net" modified="2023-07-12T10:11:36.276Z" agent="Mozilla/5.0 (X11; Linux x86_64) AppleWebKit/537.36 (KHTML, like Gecko) Chrome/114.0.0.0 Safari/537.36" etag="xS12l2LI4N15P1Iz7fh7" version="21.3.2" type="google">
  <diagram name="Страница 1" id="RuSVnRJUI8bE1k8jBO7x">
    <mxGraphModel grid="1" page="1" gridSize="10" guides="1" tooltips="1" connect="1" arrows="1" fold="1" pageScale="1" pageWidth="827" pageHeight="1169" math="0" shadow="0">
      <root>
        <mxCell id="0" />
        <mxCell id="1" parent="0" />
        <mxCell id="miBH7GK4aa3x4Xay3SHT-16" style="edgeStyle=orthogonalEdgeStyle;rounded=0;orthogonalLoop=1;jettySize=auto;html=1;entryX=0.5;entryY=0;entryDx=0;entryDy=0;" edge="1" parent="1" source="miBH7GK4aa3x4Xay3SHT-1" target="miBH7GK4aa3x4Xay3SHT-6">
          <mxGeometry relative="1" as="geometry" />
        </mxCell>
        <mxCell id="miBH7GK4aa3x4Xay3SHT-1" value="Telegram" style="rounded=0;whiteSpace=wrap;html=1;" vertex="1" parent="1">
          <mxGeometry x="80" y="40" width="80" height="40" as="geometry" />
        </mxCell>
        <mxCell id="miBH7GK4aa3x4Xay3SHT-2" value="" style="rounded=0;whiteSpace=wrap;html=1;dashed=1;fillColor=none;" vertex="1" parent="1">
          <mxGeometry x="40" y="120" width="480" height="200" as="geometry" />
        </mxCell>
        <mxCell id="miBH7GK4aa3x4Xay3SHT-9" style="edgeStyle=orthogonalEdgeStyle;rounded=0;orthogonalLoop=1;jettySize=auto;html=1;exitX=0.5;exitY=1;exitDx=0;exitDy=0;entryX=0.1;entryY=0;entryDx=0;entryDy=0;entryPerimeter=0;" edge="1" parent="1" source="miBH7GK4aa3x4Xay3SHT-6" target="miBH7GK4aa3x4Xay3SHT-7">
          <mxGeometry relative="1" as="geometry" />
        </mxCell>
        <mxCell id="miBH7GK4aa3x4Xay3SHT-6" value="poller" style="rounded=0;whiteSpace=wrap;html=1;" vertex="1" parent="1">
          <mxGeometry x="80" y="160" width="80" height="40" as="geometry" />
        </mxCell>
        <mxCell id="miBH7GK4aa3x4Xay3SHT-7" value="kafka 1" style="rounded=0;whiteSpace=wrap;html=1;" vertex="1" parent="1">
          <mxGeometry x="80" y="240" width="400" height="40" as="geometry" />
        </mxCell>
        <mxCell id="miBH7GK4aa3x4Xay3SHT-11" value="" style="edgeStyle=orthogonalEdgeStyle;rounded=0;orthogonalLoop=1;jettySize=auto;html=1;startArrow=classic;startFill=1;entryX=0.4;entryY=0.01;entryDx=0;entryDy=0;entryPerimeter=0;" edge="1" parent="1" source="miBH7GK4aa3x4Xay3SHT-10" target="miBH7GK4aa3x4Xay3SHT-7">
          <mxGeometry relative="1" as="geometry" />
        </mxCell>
        <mxCell id="miBH7GK4aa3x4Xay3SHT-13" style="edgeStyle=orthogonalEdgeStyle;rounded=0;orthogonalLoop=1;jettySize=auto;html=1;entryX=0;entryY=0.5;entryDx=0;entryDy=0;" edge="1" parent="1" source="miBH7GK4aa3x4Xay3SHT-10" target="miBH7GK4aa3x4Xay3SHT-12">
          <mxGeometry relative="1" as="geometry" />
        </mxCell>
        <mxCell id="miBH7GK4aa3x4Xay3SHT-10" value="core" style="rounded=0;whiteSpace=wrap;html=1;" vertex="1" parent="1">
          <mxGeometry x="200" y="160" width="80" height="40" as="geometry" />
        </mxCell>
        <mxCell id="miBH7GK4aa3x4Xay3SHT-12" value="PG" style="shape=datastore;whiteSpace=wrap;html=1;" vertex="1" parent="1">
          <mxGeometry x="320" y="160" width="40" height="40" as="geometry" />
        </mxCell>
        <mxCell id="miBH7GK4aa3x4Xay3SHT-15" style="edgeStyle=orthogonalEdgeStyle;rounded=0;orthogonalLoop=1;jettySize=auto;html=1;exitX=0.5;exitY=1;exitDx=0;exitDy=0;startArrow=classic;startFill=1;endArrow=none;endFill=0;" edge="1" parent="1" source="miBH7GK4aa3x4Xay3SHT-14">
          <mxGeometry relative="1" as="geometry">
            <mxPoint x="440" y="240" as="targetPoint" />
            <Array as="points">
              <mxPoint x="440" y="240" />
            </Array>
          </mxGeometry>
        </mxCell>
        <mxCell id="miBH7GK4aa3x4Xay3SHT-18" style="edgeStyle=orthogonalEdgeStyle;rounded=0;orthogonalLoop=1;jettySize=auto;html=1;entryX=1;entryY=0.5;entryDx=0;entryDy=0;exitX=0.5;exitY=0;exitDx=0;exitDy=0;" edge="1" parent="1" source="miBH7GK4aa3x4Xay3SHT-14" target="miBH7GK4aa3x4Xay3SHT-1">
          <mxGeometry relative="1" as="geometry">
            <Array as="points">
              <mxPoint x="440" y="60" />
            </Array>
          </mxGeometry>
        </mxCell>
        <mxCell id="miBH7GK4aa3x4Xay3SHT-14" value="sender" style="rounded=0;whiteSpace=wrap;html=1;" vertex="1" parent="1">
          <mxGeometry x="400" y="160" width="80" height="40" as="geometry" />
        </mxCell>
      </root>
    </mxGraphModel>
  </diagram>
</mxfile>
